<svg width="189" height="180" viewBox="0 0 189 180" fill="none" xmlns="http://www.w3.org/2000/svg">
<path d="M105.397 107.171V76.9379H97.597V68.1045H124.464V76.9379H116.664V107.171H105.397Z" fill="white"/>
<path d="M92.4637 52.1712L106.464 21.1712L121.464 49.6712L159.964 28.6712L155.464 52.1712L184.464 70.1712L155.464 94.1712L176.964 122.671L141.464 114.171V142.171L118.964 122.671L96.9637 167.171L92.4637 130.171L64.4637 145.671L66.9637 114.171H28.9637L45.9637 94.1712L20.9637 85.6712L57.9637 65.6712L45.9637 38.1712L92.4637 52.1712Z" fill="#DA5A5A" stroke="black" stroke-width="5"/>
<path d="M73.9637 66.446L132.964 62.1712L126.269 83.5452L111.623 86.9651L109.95 115.606L96.5594 118.171L93.6304 86.9651H79.4034L73.9637 66.446Z" fill="white" stroke="black" stroke-width="5"/>
<path d="M58.6576 1.1712L79.3106 31.2189L55.9637 11.0306L58.6576 1.1712Z" fill="black"/>
<path d="M90.0861 4.92717L91.882 22.2985H88.2902L85.1474 8.21364L90.0861 4.92717Z" fill="black"/>
<path d="M165.964 145.306L160.576 154.696L151.596 129.813L165.964 145.306Z" fill="black"/>
<path d="M160.576 173.476L147.556 150.471L157.882 178.171L160.576 173.476Z" fill="black"/>
<path d="M58.6576 1.1712L79.3106 31.2189L55.9637 11.0306L58.6576 1.1712Z" stroke="black"/>
<path d="M90.0861 4.92717L91.882 22.2985H88.2902L85.1474 8.21364L90.0861 4.92717Z" stroke="black"/>
<path d="M165.964 145.306L160.576 154.696L151.596 129.813L165.964 145.306Z" stroke="black"/>
<path d="M160.576 173.476L147.556 150.471L157.882 178.171L160.576 173.476Z" stroke="black"/>
<path d="M0.963684 96.1712L16.9637 99.6712L3.96368 101.671L0.963684 96.1712Z" fill="black" stroke="black"/>
</svg>
